<?xml version="1.0" standalone="no"?>
<!DOCTYPE svg PUBLIC "-//W3C//DTD SVG 20010904//EN"
 "http://www.w3.org/TR/2001/REC-SVG-20010904/DTD/svg10.dtd">
<svg version="1.0" xmlns="http://www.w3.org/2000/svg"
 width="512.000000pt" height="512.000000pt" viewBox="0 0 512.000000 512.000000"
 preserveAspectRatio="xMidYMid meet">

<g transform="translate(0.000000,512.000000) scale(0.100000,-0.100000)"
fill="#000000" stroke="none">
<path d="M2198 4950 c-9 -6 -33 -44 -53 -85 -46 -97 -112 -162 -212 -212 -57
-28 -80 -45 -87 -64 -18 -52 -2 -75 109 -149 111 -75 140 -104 195 -202 59
-104 122 -106 175 -6 48 90 87 131 199 207 112 76 128 98 110 150 -7 19 -30
36 -85 64 -100 49 -168 117 -215 212 -19 41 -44 80 -54 85 -23 13 -60 12 -82
0z m115 -326 l77 -76 -71 -66 c-40 -37 -75 -67 -79 -67 -4 0 -39 30 -78 66
l-72 67 72 75 c40 41 73 75 73 76 0 0 35 -33 78 -75z"/>
<path d="M3982 4730 c-165 -36 -336 -116 -423 -197 -64 -60 -93 -128 -93 -218
-1 -67 6 -86 131 -400 l131 -330 7 -185 c12 -363 55 -740 118 -1045 l31 -150
6 -900 5 -900 26 -56 c32 -68 83 -120 152 -156 45 -23 64 -27 137 -27 69 0 94
4 135 24 63 31 124 92 156 155 l24 50 5 900 6 900 32 160 c66 325 105 672 118
1044 l7 195 129 320 c144 358 153 394 122 492 -38 124 -213 245 -444 309 -134
38 -380 45 -518 15z m416 -156 c143 -29 331 -118 375 -176 43 -58 39 -77 -93
-409 l-124 -309 -83 0 c-46 0 -83 2 -83 3 0 2 14 71 30 152 17 81 30 159 30
172 0 34 -42 73 -80 73 -59 0 -72 -27 -110 -223 -45 -233 -52 -232 -100 7 -40
195 -51 216 -112 216 -33 0 -78 -39 -78 -68 0 -10 14 -86 30 -167 17 -81 30
-152 30 -157 0 -4 -37 -8 -83 -8 l-83 0 -124 309 c-131 330 -135 344 -94 406
37 56 229 148 374 179 90 20 283 20 378 0z m128 -1201 c-3 -82 -9 -190 -13
-240 l-6 -93 -124 0 c-118 0 -125 -1 -148 -25 -33 -32 -33 -78 0 -110 23 -24
30 -25 140 -25 63 0 115 -3 115 -7 -1 -30 -46 -319 -72 -461 l-31 -172 -176 2
-176 3 -27 140 c-58 299 -98 644 -114 988 l-7 147 323 0 323 0 -7 -147z m-158
-2122 c-3 -820 -3 -830 -24 -857 -39 -52 -71 -69 -133 -69 -47 0 -64 5 -93 27
-72 55 -68 4 -68 912 l0 816 160 0 160 0 -2 -829z"/>
<path d="M2758 4230 c-9 -6 -33 -44 -53 -85 -46 -97 -112 -162 -212 -212 -57
-28 -80 -45 -87 -64 -18 -52 -2 -75 109 -149 111 -75 140 -104 195 -202 59
-104 122 -106 175 -6 48 90 87 131 199 207 112 76 128 98 110 150 -7 19 -30
36 -85 64 -100 49 -168 117 -215 212 -19 41 -44 80 -54 85 -23 13 -60 12 -82
0z m115 -326 l77 -76 -71 -66 c-40 -37 -75 -67 -79 -67 -4 0 -39 30 -78 66
l-72 67 72 75 c40 41 73 75 73 76 0 0 35 -33 78 -75z"/>
<path d="M1878 3750 c-9 -6 -33 -44 -53 -85 -46 -97 -112 -162 -212 -212 -57
-28 -80 -45 -87 -64 -18 -52 -2 -75 109 -149 111 -75 140 -104 195 -202 59
-104 122 -106 175 -6 48 90 87 131 199 207 112 76 128 98 110 150 -7 19 -30
36 -85 64 -100 49 -168 117 -215 212 -19 41 -44 80 -54 85 -23 13 -60 12 -82
0z m115 -326 l77 -76 -71 -66 c-40 -37 -75 -67 -79 -67 -4 0 -39 30 -78 66
l-72 67 72 75 c40 41 73 75 73 76 0 0 35 -33 78 -75z"/>
<path d="M3065 2583 c-46 -24 -66 -45 -86 -88 -17 -37 -19 -74 -19 -467 0
-379 -2 -428 -15 -428 -9 0 -27 -11 -40 -25 l-25 -24 0 -671 0 -671 25 -24 24
-25 351 0 351 0 24 25 25 24 0 671 0 671 -25 24 c-13 14 -31 25 -39 25 -13 0
-15 46 -18 343 l-3 342 -26 56 c-32 68 -88 132 -145 165 -60 35 -241 94 -288
94 -23 -1 -54 -8 -71 -17z m169 -173 c119 -40 150 -61 180 -122 l26 -52 0
-318 0 -318 -160 0 -160 0 0 413 c0 228 3 417 7 420 9 10 11 10 107 -23z m286
-1050 l0 -80 -240 0 -240 0 0 80 0 80 240 0 240 0 0 -80z m0 -640 l0 -400
-240 0 -240 0 0 400 0 400 240 0 240 0 0 -400z"/>
<path d="M1330 2555 c-8 -2 -49 -9 -90 -15 -436 -71 -801 -427 -896 -874 -43
-203 -22 -446 56 -638 l28 -68 -110 0 c-104 0 -110 -1 -135 -26 -25 -25 -26
-28 -20 -122 10 -179 76 -329 198 -451 79 -79 165 -132 274 -169 l80 -27 725
0 725 0 80 27 c277 95 456 328 472 620 6 94 5 97 -20 122 -25 25 -31 26 -135
26 l-110 0 28 68 c97 238 104 523 19 773 -34 102 -117 252 -187 339 -178 223
-436 368 -727 410 -64 9 -219 12 -255 5z m341 -184 c181 -47 320 -128 454
-265 168 -171 255 -367 271 -606 11 -162 -24 -343 -94 -480 l-28 -55 -97 -3
-97 -3 40 62 c80 123 115 251 115 419 0 225 -76 411 -230 565 -154 154 -340
230 -565 230 -174 0 -297 -36 -433 -125 -317 -206 -444 -590 -315 -947 16 -46
47 -110 69 -143 l39 -61 -97 3 -97 3 -28 55 c-115 227 -127 525 -32 769 50
126 113 220 219 326 160 159 329 244 560 279 67 10 272 -3 346 -23z m-343
-333 c-14 -18 -135 -180 -270 -360 -135 -180 -248 -325 -252 -321 -11 12 -6
147 9 218 45 217 219 407 435 476 30 10 66 18 79 18 l23 1 -24 -32z m349 -5
c41 -16 60 -29 56 -37 -11 -18 -734 -939 -754 -960 -17 -18 -18 -18 -42 10
-14 16 -35 47 -47 70 l-23 41 343 456 c342 456 342 456 373 450 18 -3 60 -17
94 -30z m314 -269 c16 -28 29 -57 29 -63 0 -7 -129 -176 -286 -376 l-285 -365
-160 0 c-126 0 -159 3 -153 13 5 6 172 221 373 476 l365 465 43 -50 c24 -27
57 -72 74 -100z m75 -455 c-21 -99 -82 -221 -148 -292 l-53 -58 -106 3 -105 3
210 268 211 268 3 -59 c2 -32 -4 -92 -12 -133z m-1103 -559 c-9 -78 12 -136
71 -195 32 -32 66 -55 92 -63 57 -17 571 -17 628 0 26 8 60 31 92 63 59 59 80
117 71 195 l-6 50 324 0 c179 0 325 -3 325 -7 0 -5 -7 -37 -15 -72 -44 -186
-200 -342 -386 -386 -95 -22 -1343 -22 -1438 0 -206 49 -351 207 -396 433 l-7
32 326 0 325 0 -6 -50z m772 25 c16 -15 25 -36 25 -55 0 -19 -9 -40 -25 -55
l-24 -25 -271 0 -271 0 -24 25 c-16 15 -25 36 -25 55 0 19 9 40 25 55 l24 25
271 0 271 0 24 -25z"/>
</g>
</svg>
