<?xml version="1.0" standalone="no"?>
<!DOCTYPE svg PUBLIC "-//W3C//DTD SVG 20010904//EN"
 "http://www.w3.org/TR/2001/REC-SVG-20010904/DTD/svg10.dtd">
<svg version="1.0" xmlns="http://www.w3.org/2000/svg"
 width="512.000000pt" height="512.000000pt" viewBox="0 0 512.000000 512.000000"
 preserveAspectRatio="xMidYMid meet">

<g transform="translate(0.000000,512.000000) scale(0.100000,-0.100000)"
fill="#000000" stroke="none">
<path d="M2383 4921 c-254 -109 -484 -211 -510 -227 -75 -43 -158 -133 -182
-199 -24 -63 -27 -150 -7 -204 11 -31 9 -41 -20 -110 -60 -139 -65 -172 -77
-487 l-11 -292 -66 -4 c-82 -6 -155 -43 -211 -106 -58 -67 -74 -124 -74 -272
0 -122 1 -127 33 -193 55 -112 160 -177 284 -177 l48 0 0 -299 c0 -259 2 -302
16 -315 8 -9 20 -16 25 -16 5 0 9 -14 9 -31 0 -21 -8 -37 -25 -51 -24 -19 -25
-22 -25 -153 0 -108 3 -137 16 -149 8 -9 20 -16 25 -16 5 0 9 -16 9 -36 0 -27
-7 -43 -26 -61 -23 -21 -26 -29 -20 -66 8 -47 21 -67 45 -67 13 0 21 -17 33
-65 l15 -66 -58 -29 c-139 -69 -259 -171 -338 -287 -23 -35 -45 -63 -49 -63
-4 0 -70 38 -147 84 l-140 84 0 89 c0 79 -3 94 -30 142 -56 102 -144 147 -266
139 -137 -10 -233 -106 -246 -246 -15 -161 110 -295 272 -295 65 0 150 30 181
64 9 10 22 19 27 19 15 0 267 -151 267 -159 0 -6 -234 -148 -261 -159 -5 -2
-26 11 -47 28 -102 81 -246 77 -346 -11 -61 -54 -88 -108 -94 -190 -18 -255
301 -388 473 -197 57 64 80 134 71 222 l-6 61 107 62 c60 35 127 74 150 88
l41 25 25 -43 c69 -118 189 -228 328 -301 46 -24 272 -121 502 -216 367 -152
421 -171 443 -162 18 9 24 20 24 41 0 28 -33 57 -357 323 -395 322 -431 350
-521 392 -34 16 -62 33 -62 36 0 3 28 20 62 36 34 16 88 47 120 70 l59 41 34
-33 c27 -25 35 -41 35 -68 0 -32 6 -39 63 -78 69 -47 820 -408 849 -408 28 0
752 345 832 397 145 93 287 265 357 433 67 158 69 180 69 851 l0 606 68 5
c122 9 218 71 269 176 27 54 28 64 28 197 0 130 -2 144 -26 195 -51 108 -144
172 -260 178 l-67 4 -5 277 c-5 304 -10 337 -73 494 -33 81 -35 91 -23 120 20
47 15 154 -10 210 -25 58 -99 139 -167 183 -44 28 -973 435 -992 434 -4 0
-215 -90 -469 -199z m1173 -1042 c15 -17 20 -42 24 -147 7 -161 22 -194 141
-317 l87 -90 4 -100 c5 -127 22 -165 122 -277 69 -77 76 -89 76 -127 0 -38 -2
-41 -27 -41 -45 0 -112 -39 -141 -83 l-27 -40 -5 -301 -5 -301 -28 -57 c-30
-61 -74 -105 -140 -140 -39 -22 -56 -23 -267 -26 -181 -3 -229 0 -244 11 -14
11 -20 32 -25 88 -7 79 -21 110 -68 140 -24 16 -49 19 -181 19 -129 0 -159 -3
-184 -17 -45 -27 -67 -71 -74 -152 -6 -56 -11 -74 -26 -82 -12 -7 -103 -9
-241 -7 -208 3 -225 4 -264 26 -66 35 -110 79 -140 140 l-28 57 -5 301 -5 301
-27 40 c-29 44 -96 83 -141 83 -25 0 -27 3 -27 40 0 35 8 49 74 122 40 46 83
102 94 124 23 46 42 142 42 218 0 49 2 51 84 135 46 47 92 104 104 126 27 53
42 140 42 239 0 129 -78 116 720 116 684 0 687 0 706 -21z m-1976 -689 l0
-110 -29 0 c-35 0 -61 -23 -61 -54 0 -31 19 -46 57 -46 l33 0 0 -115 0 -115
-26 0 c-84 0 -168 50 -205 122 -18 36 -20 55 -17 168 3 124 4 130 33 171 39
55 103 89 167 89 l48 0 0 -110z m2704 73 c23 -16 52 -49 66 -73 23 -41 25 -56
25 -165 0 -113 -2 -123 -28 -167 -35 -60 -96 -97 -172 -105 l-55 -6 0 117 0
116 33 0 c40 0 57 15 57 52 0 30 -23 48 -64 48 l-26 0 0 111 0 112 62 -6 c45
-4 72 -13 102 -34z m-2094 -1917 c0 -5 -333 -277 -415 -339 -103 -78 -278
-147 -375 -147 l-42 0 27 38 c66 88 171 179 265 228 36 19 519 221 533 223 4
1 7 -1 7 -3z m-1431 -40 c70 -37 116 -132 96 -198 -26 -81 -88 -128 -170 -128
-62 0 -111 25 -142 71 -78 118 1 269 140 269 26 0 61 -7 76 -14z m761 -587
c119 -31 212 -90 450 -283 121 -98 222 -182 225 -186 3 -4 -116 42 -263 103
-274 113 -366 162 -453 244 -48 45 -119 133 -119 148 0 9 67 -2 160 -26z
m-763 -108 c119 -54 132 -225 24 -298 -68 -46 -149 -42 -208 10 -100 88 -80
232 42 288 51 24 89 23 142 0z"/>
<path d="M2255 3387 c-66 -22 -99 -43 -143 -91 -47 -51 -51 -67 -21 -97 24
-24 56 -18 82 16 45 60 144 92 226 74 36 -8 64 -23 106 -60 44 -38 62 -48 78
-43 27 8 33 14 41 41 10 31 -60 104 -131 139 -65 32 -175 42 -238 21z"/>
<path d="M3250 3384 c-89 -32 -170 -104 -170 -150 0 -21 32 -54 52 -54 5 0 27
17 51 39 62 57 103 74 172 74 69 0 110 -17 172 -74 24 -22 46 -39 51 -39 21 0
52 33 52 56 0 33 -71 103 -135 133 -65 31 -181 38 -245 15z"/>
<path d="M2279 3141 c-80 -81 10 -208 114 -160 28 13 57 58 57 89 0 31 -29 76
-57 89 -43 20 -82 13 -114 -18z"/>
<path d="M3288 3141 c-27 -24 -33 -36 -33 -71 0 -35 6 -47 33 -71 44 -40 93
-40 133 0 62 62 20 171 -65 171 -25 0 -45 -9 -68 -29z"/>
<path d="M2590 2744 c-30 -8 -90 -34 -135 -58 -44 -24 -104 -51 -133 -61 -62
-20 -177 -23 -239 -6 -49 13 -78 4 -88 -30 -14 -44 108 -181 210 -236 136 -72
238 -79 490 -35 l160 28 150 -27 c174 -32 297 -36 376 -13 121 36 222 106 293
203 41 55 45 80 16 106 -16 15 -26 16 -67 7 -140 -31 -198 -21 -373 63 -161
77 -216 87 -332 61 -67 -16 -78 -16 -133 -2 -72 19 -123 19 -195 0z"/>
<path d="M4514 2526 c-60 -19 -107 -58 -140 -118 l-29 -53 -3 -462 c-2 -295 1
-483 7 -520 20 -107 104 -187 209 -200 l52 -6 0 -71 0 -72 -65 4 c-55 4 -70 1
-107 -21 -24 -14 -201 -184 -395 -379 -382 -384 -372 -371 -360 -474 12 -111
145 -186 250 -140 39 17 747 724 764 763 9 21 12 238 13 880 0 761 -2 853 -16
867 -19 20 -120 21 -180 2z m96 -672 l0 -587 -36 6 c-47 8 -80 30 -104 70 -19
31 -20 54 -20 510 0 502 1 510 44 546 17 14 83 40 104 41 9 0 12 -124 12 -586z
m-715 -1600 c23 -9 48 -62 41 -89 -9 -37 -34 -55 -76 -55 -71 0 -104 76 -55
125 24 24 57 31 90 19z"/>
<path d="M1061 2376 c-6 -7 -18 -37 -27 -66 -22 -73 -99 -151 -174 -175 -71
-23 -82 -32 -78 -69 3 -28 8 -33 66 -52 105 -37 162 -95 193 -202 25 -85 87
-80 113 11 29 100 86 157 194 192 96 31 90 90 -13 120 -76 22 -144 88 -174
170 -13 33 -27 65 -33 72 -14 17 -53 16 -67 -1z m149 -296 c5 0 -19 -28 -53
-62 l-62 -63 -60 60 -60 60 36 27 c20 14 46 40 59 58 l22 31 55 -55 c31 -31
59 -56 63 -56z"/>
</g>
</svg>
