<?xml version="1.0" standalone="no"?>
<!DOCTYPE svg PUBLIC "-//W3C//DTD SVG 20010904//EN"
 "http://www.w3.org/TR/2001/REC-SVG-20010904/DTD/svg10.dtd">
<svg version="1.0" xmlns="http://www.w3.org/2000/svg"
 width="512.000000pt" height="512.000000pt" viewBox="0 0 512.000000 512.000000"
 preserveAspectRatio="xMidYMid meet">

<g transform="translate(0.000000,512.000000) scale(0.100000,-0.100000)"
fill="#000000" stroke="none">
<path d="M2295 4793 c-71 -15 -128 -53 -417 -283 l-313 -248 -36 19 c-43 21
-64 51 -90 127 -53 153 -175 271 -328 316 -77 23 -204 21 -284 -4 -330 -102
-443 -533 -208 -793 79 -87 165 -126 356 -161 76 -14 140 -28 143 -30 2 -3
-38 -52 -90 -111 -51 -58 -107 -131 -125 -163 -105 -187 -75 -397 77 -553 60
-61 105 -88 189 -113 151 -45 332 6 455 127 138 136 171 318 90 498 -29 63
-29 63 28 129 l38 43 417 4 c478 5 485 6 566 82 67 62 91 111 91 186 1 68 -23
114 -75 141 -17 8 -141 37 -277 65 -136 27 -251 50 -255 52 -5 1 68 92 162
200 94 109 178 211 186 227 34 66 10 154 -55 201 -48 35 -176 57 -245 42z
m146 -170 c6 -6 -307 -383 -374 -450 -9 -9 -44 -5 -152 17 -77 16 -141 30
-143 30 -10 1 493 393 520 405 34 16 133 14 149 -2z m-1354 -58 c96 -29 174
-119 217 -252 22 -66 92 -146 158 -179 36 -18 204 -57 641 -146 326 -66 594
-122 595 -123 9 -8 -26 -60 -51 -79 -28 -20 -43 -21 -591 -29 l-562 -9 -130
65 c-141 70 -160 76 -344 107 -71 12 -150 32 -182 47 -220 98 -253 413 -58
548 88 61 205 80 307 50z m286 -935 c65 -31 97 -40 137 -40 l52 0 -31 -42
c-17 -23 -31 -49 -31 -57 0 -8 18 -45 40 -81 53 -88 67 -159 46 -241 -58 -225
-315 -303 -490 -148 -89 78 -118 227 -65 339 21 44 238 310 253 310 2 0 42
-18 89 -40z"/>
<path d="M875 4481 c-47 -21 -99 -70 -121 -114 -9 -16 -19 -56 -21 -89 -20
-212 219 -344 389 -215 79 61 115 166 88 262 -16 56 -81 132 -135 156 -53 24
-147 24 -200 0z m160 -166 c52 -51 14 -139 -60 -139 -29 0 -43 7 -61 28 -31
35 -30 67 2 105 33 40 83 43 119 6z"/>
<path d="M1245 3461 c-104 -26 -175 -122 -175 -235 0 -51 39 -136 74 -164 110
-86 269 -63 343 49 32 48 43 144 23 204 -33 100 -163 171 -265 146z m100 -176
c28 -27 31 -45 14 -78 -16 -29 -28 -37 -61 -37 -64 0 -91 80 -42 119 35 27 59
26 89 -4z"/>
<path d="M2770 4212 c-18 -18 -30 -41 -30 -57 0 -30 40 -75 67 -75 118 -1 359
-49 522 -105 458 -157 814 -437 981 -772 32 -67 80 -198 80 -223 0 -4 -50 12
-111 37 -324 128 -573 158 -618 75 -29 -55 2 -102 79 -122 263 -67 477 -241
599 -486 82 -164 118 -322 127 -554 l7 -155 -63 70 c-190 210 -372 347 -530
401 -122 41 -183 27 -196 -44 -6 -30 -1 -37 83 -120 138 -136 211 -255 254
-417 31 -118 29 -277 -5 -410 -43 -166 -147 -353 -282 -509 l-41 -48 -7 99
c-10 151 -33 294 -72 453 -126 510 -376 857 -700 971 -111 39 -264 60 -309 43
-17 -7 -45 -54 -45 -78 0 -8 10 -27 23 -41 19 -23 37 -29 114 -41 325 -48 527
-235 684 -633 32 -83 33 -84 22 -170 -24 -190 -110 -373 -249 -527 -48 -55
-64 -79 -64 -102 0 -39 27 -70 68 -78 32 -6 38 -2 106 67 85 88 125 143 187
263 l46 89 13 -84 c6 -46 16 -165 20 -264 4 -99 11 -188 15 -198 10 -24 37
-37 77 -37 28 0 45 13 123 92 226 232 376 481 437 725 18 70 22 116 21 228 0
157 -17 238 -77 377 l-34 78 39 -31 c51 -40 166 -165 242 -263 107 -136 120
-149 157 -149 50 0 76 37 87 120 15 123 9 448 -11 556 -45 247 -133 444 -272
610 l-65 77 58 -26 c110 -50 122 -54 152 -54 49 0 71 39 71 125 0 343 -235
697 -647 973 -301 203 -677 337 -1025 368 -76 6 -78 6 -108 -24z"/>
<path d="M782 2788 c-61 -66 -107 -572 -83 -918 26 -363 87 -630 200 -867 81
-168 192 -323 249 -344 72 -27 189 87 286 280 l27 53 29 -61 c43 -91 105 -177
189 -265 295 -305 742 -422 1129 -294 123 41 159 85 116 146 -29 42 -55 44
-148 12 -276 -93 -571 -53 -822 113 -186 123 -328 315 -385 522 -22 79 -22 82
-5 200 13 95 16 205 16 533 0 226 2 412 5 412 3 0 36 -15 73 -34 138 -69 292
-105 540 -126 118 -10 136 -10 158 5 50 32 51 97 2 129 -14 9 -88 20 -197 31
-356 34 -554 122 -576 256 -9 56 -39 89 -79 89 -38 -1 -62 -18 -76 -54 -6 -18
-10 -220 -10 -574 0 -592 -4 -658 -56 -837 -14 -49 -43 -126 -64 -170 -37 -77
-103 -175 -118 -175 -23 0 -138 209 -185 335 -99 265 -141 533 -141 905 0 254
11 397 45 558 17 83 17 96 4 121 -24 47 -87 57 -123 19z"/>
</g>
</svg>
