<?xml version="1.0" standalone="no"?>
<!DOCTYPE svg PUBLIC "-//W3C//DTD SVG 20010904//EN"
 "http://www.w3.org/TR/2001/REC-SVG-20010904/DTD/svg10.dtd">
<svg version="1.0" xmlns="http://www.w3.org/2000/svg"
 width="512.000000pt" height="512.000000pt" viewBox="0 0 512.000000 512.000000"
 preserveAspectRatio="xMidYMid meet">

<g transform="translate(0.000000,512.000000) scale(0.100000,-0.100000)"
fill="#000000" stroke="none">
<path d="M1625 4375 c-25 -24 -25 -24 -25 -238 0 -214 0 -215 -22 -221 -57
-15 -58 -14 -58 94 0 94 -2 103 -25 125 -32 33 -78 33 -110 0 -23 -22 -25 -31
-25 -122 l0 -98 -152 0 c-166 0 -242 -11 -380 -56 -179 -58 -335 -155 -474
-293 -138 -139 -235 -295 -293 -474 -52 -161 -56 -199 -56 -582 l0 -355 27
-51 c40 -76 70 -107 140 -145 58 -31 70 -34 148 -33 61 0 94 5 117 17 18 9 34
17 38 17 3 0 5 -24 5 -52 1 -130 59 -287 147 -395 l45 -55 -50 -97 c-88 -167
-142 -371 -142 -534 0 -48 4 -62 25 -82 31 -32 78 -33 109 -2 19 20 24 37 29
123 7 109 33 223 73 324 26 65 81 170 90 170 3 0 23 -9 45 -21 22 -11 75 -29
116 -40 42 -10 77 -20 78 -22 0 -1 6 -29 13 -61 6 -33 31 -98 54 -144 48 -98
148 -206 240 -260 338 -199 764 -57 919 306 16 37 31 88 35 115 6 41 10 48 33
53 67 15 139 38 173 55 20 10 39 19 42 19 9 0 64 -105 90 -170 40 -101 66
-215 73 -324 5 -86 10 -103 29 -123 31 -31 78 -30 109 2 21 20 25 34 25 82 0
163 -54 367 -142 534 l-50 97 45 55 c88 108 146 265 147 394 l0 51 50 -19
c158 -60 349 26 408 184 21 55 22 75 22 381 0 350 -7 422 -56 578 -56 178
-146 329 -279 467 -241 250 -553 379 -897 369 l-128 -3 0 98 c0 91 -2 100 -25
122 -32 33 -78 33 -110 0 -23 -22 -25 -31 -25 -125 0 -108 -1 -109 -57 -94
-23 6 -23 7 -23 221 0 214 0 214 -25 238 -15 16 -36 25 -55 25 -19 0 -40 -9
-55 -25z m260 -635 c22 -6 65 -18 95 -27 207 -58 415 -205 544 -386 93 -131
164 -306 185 -461 7 -46 11 -263 11 -540 0 -508 -2 -525 -62 -638 -38 -72
-136 -165 -209 -200 -184 -87 -386 -55 -536 85 -67 63 -128 167 -139 239 -6
36 -5 37 44 62 101 51 167 146 178 255 6 55 5 61 -19 85 l-26 26 -271 0 -271
0 -26 -26 c-24 -24 -25 -30 -19 -86 11 -112 76 -202 185 -257 42 -22 43 -24
37 -59 -11 -72 -72 -176 -139 -239 -149 -139 -352 -172 -534 -86 -74 35 -173
129 -211 201 -60 113 -62 129 -62 638 0 491 5 565 47 699 120 385 441 659 848
726 65 10 299 3 350 -11z m-840 2 c-6 -4 -44 -33 -85 -64 -226 -170 -384 -414
-452 -698 -18 -74 -21 -132 -27 -442 -6 -339 -7 -358 -27 -384 -39 -52 -71
-69 -133 -69 -48 0 -64 5 -95 29 -64 48 -66 61 -66 388 0 393 18 495 118 693
100 197 260 354 467 458 97 48 336 119 300 89z m1415 -28 c281 -81 546 -322
659 -600 66 -163 80 -270 81 -624 0 -266 -1 -277 -22 -320 -25 -48 -89 -90
-138 -90 -42 0 -113 42 -135 80 -19 33 -20 58 -26 385 -6 302 -9 362 -27 435
-68 284 -226 528 -452 698 -41 31 -79 59 -83 63 -11 9 74 -7 143 -27z m-672
-1669 c-20 -19 -52 -37 -72 -41 -56 -10 -104 4 -144 41 l-37 34 145 0 145 0
-37 -34z m-159 -826 c32 -26 77 -24 106 6 24 23 25 30 25 145 l0 122 58 -52
c69 -61 191 -125 274 -142 l60 -12 -6 -34 c-10 -63 -64 -162 -123 -223 -186
-195 -500 -195 -687 0 -58 61 -112 160 -122 223 l-6 34 60 12 c83 17 205 80
272 140 l55 50 5 -125 c5 -116 7 -126 29 -144z"/>
<path d="M1013 2941 c-96 -33 -170 -109 -198 -204 -30 -102 -13 -161 52 -173
44 -9 93 38 93 89 0 69 80 147 152 147 87 0 153 -58 164 -144 8 -58 29 -84 71
-92 27 -5 37 -1 64 25 30 30 31 35 26 84 -25 206 -229 336 -424 268z"/>
<path d="M2121 2938 c-65 -25 -137 -93 -169 -159 -29 -60 -39 -142 -22 -174
18 -35 63 -51 99 -36 32 14 47 39 55 96 11 76 78 135 156 135 78 0 145 -59
156 -135 8 -57 23 -82 55 -96 22 -9 36 -9 58 0 41 18 55 50 48 112 -24 204
-241 332 -436 257z"/>
<path d="M3983 3867 c-32 -24 -76 -64 -97 -88 -49 -57 -102 -168 -115 -243 -7
-40 -11 -340 -11 -888 l0 -828 -42 7 c-77 14 -219 8 -278 -11 -91 -30 -169
-77 -230 -137 -275 -271 -201 -732 144 -899 162 -78 330 -79 490 -1 82 40 178
122 216 183 l17 29 42 -55 c120 -156 324 -237 522 -208 210 30 384 180 455
392 26 76 26 244 0 320 -63 187 -191 315 -376 376 -59 19 -201 25 -277 11
l-43 -7 0 843 c0 919 1 894 -58 1015 -33 67 -115 159 -181 201 -68 44 -104 42
-178 -12z m197 -229 c21 -32 43 -80 49 -108 7 -35 11 -332 11 -920 l0 -869
-37 -30 -38 -31 -5 301 -5 301 -24 19 c-19 16 -40 19 -117 19 l-95 0 3 603 3
602 29 62 c18 39 47 80 77 108 l49 46 31 -23 c17 -13 48 -49 69 -80z m-180
-1719 c0 -266 5 -250 -57 -195 -22 19 -23 24 -23 228 l0 208 40 0 40 0 0 -241z
m-236 -277 c91 -42 149 -100 194 -190 35 -72 37 -81 37 -172 0 -91 -2 -100
-37 -172 -45 -91 -103 -147 -196 -191 -61 -29 -76 -32 -162 -32 -86 0 -101 3
-162 32 -93 44 -151 100 -196 191 -35 72 -37 81 -37 171 0 87 3 102 32 163 40
85 97 147 172 186 78 42 122 52 213 48 61 -3 92 -11 142 -34z m960 0 c91 -42
149 -100 194 -190 35 -72 37 -81 37 -172 0 -91 -2 -100 -37 -172 -45 -91 -103
-147 -196 -191 -61 -29 -76 -32 -162 -32 -86 0 -101 3 -162 32 -93 44 -151
100 -196 191 -35 72 -37 81 -37 171 0 87 3 102 32 163 40 85 97 147 172 186
78 42 122 52 213 48 61 -3 92 -11 142 -34z"/>
<path d="M4043 2548 c-12 -6 -27 -23 -34 -39 -32 -78 67 -144 126 -84 65 64
-8 163 -92 123z"/>
<path d="M3525 1591 c-92 -24 -173 -90 -215 -176 -35 -72 -35 -198 0 -270 31
-64 91 -124 155 -155 41 -20 65 -25 135 -24 72 0 93 4 136 26 75 39 107 70
145 140 31 58 34 70 33 148 0 72 -4 93 -26 136 -39 75 -70 107 -137 143 -65
34 -164 49 -226 32z m139 -165 c44 -18 86 -75 93 -124 20 -152 -160 -241 -268
-133 -124 124 13 325 175 257z"/>
<path d="M4485 1591 c-92 -24 -173 -90 -215 -176 -35 -72 -35 -198 0 -270 31
-64 91 -124 155 -155 41 -20 65 -25 135 -24 72 0 93 4 136 26 75 39 107 70
145 140 31 58 34 70 33 148 0 72 -4 93 -26 136 -39 75 -70 107 -137 143 -65
34 -164 49 -226 32z m139 -165 c44 -18 86 -75 93 -124 20 -152 -160 -241 -268
-133 -124 124 13 325 175 257z"/>
</g>
</svg>
