<?xml version="1.0" standalone="no"?>
<!DOCTYPE svg PUBLIC "-//W3C//DTD SVG 20010904//EN"
 "http://www.w3.org/TR/2001/REC-SVG-20010904/DTD/svg10.dtd">
<svg version="1.0" xmlns="http://www.w3.org/2000/svg"
 width="512.000000pt" height="512.000000pt" viewBox="0 0 512.000000 512.000000"
 preserveAspectRatio="xMidYMid meet">

<g transform="translate(0.000000,512.000000) scale(0.100000,-0.100000)"
fill="#000000" stroke="none">
<path d="M815 4837 c-166 -44 -285 -172 -316 -340 -38 -208 97 -417 306 -471
149 -39 292 -1 401 108 176 176 161 461 -32 619 -32 26 -82 56 -112 67 -69 26
-182 34 -247 17z"/>
<path d="M4352 4702 c-480 -172 -714 -1295 -445 -2137 149 -468 431 -702 696
-578 239 113 418 468 494 978 27 184 24 581 -5 773 -61 393 -178 675 -353 850
-117 117 -260 159 -387 114z m173 -136 c267 -124 448 -626 447 -1236 -1 -455
-100 -841 -275 -1075 -310 -414 -707 -66 -823 720 -26 169 -25 562 0 730 70
463 243 798 451 873 54 19 145 14 200 -12z"/>
<path d="M4266 4114 c-192 -254 -237 -318 -207 -300 7 5 144 183 433 563 5 6
5 14 0 17 -5 3 -107 -123 -226 -280z"/>
<path d="M4226 4139 c-97 -131 -115 -159 -100 -159 5 1 43 46 84 102 41 56 88
118 103 139 15 21 24 40 19 43 -4 2 -52 -54 -106 -125z"/>
<path d="M4359 4157 c-123 -157 -188 -246 -181 -251 9 -5 207 238 218 269 10
26 -10 17 -37 -18z"/>
<path d="M4590 3964 c-94 -34 -165 -94 -221 -184 -61 -98 -66 -261 -11 -372
77 -156 255 -249 422 -218 36 6 81 19 100 28 l35 17 3 95 c6 181 -42 572 -78
630 -14 22 -191 25 -250 4z"/>
<path d="M4759 3106 c-188 -67 -272 -272 -208 -507 13 -46 25 -114 27 -151 5
-89 -25 -156 -110 -245 l-63 -66 45 6 c37 5 52 13 87 52 59 64 94 142 100 218
4 51 0 82 -23 158 -39 132 -39 239 1 327 46 103 122 157 237 169 53 5 58 8 58
29 0 23 -4 24 -57 24 -32 -1 -74 -7 -94 -14z"/>
<path d="M1775 4334 c-103 -180 -149 -252 -175 -272 -19 -14 -116 -94 -215
-177 -99 -82 -187 -156 -196 -163 -14 -10 -59 9 -285 119 -151 73 -290 134
-318 140 -148 28 -331 -73 -414 -229 -39 -72 -95 -244 -126 -387 -48 -212 -57
-413 -32 -650 22 -202 68 -298 175 -362 30 -18 58 -34 63 -35 5 -2 40 -138 79
-303 l71 -300 -42 -540 c-49 -625 -50 -599 35 -681 42 -42 63 -54 105 -63 109
-24 211 24 262 123 17 34 26 114 65 617 l46 578 -93 392 c-92 391 -92 394 -97
553 -5 148 9 347 33 462 6 30 -1 37 -145 170 -159 146 -191 189 -191 257 0 45
23 103 53 136 30 32 94 61 137 61 61 0 112 -34 265 -175 104 -95 168 -146 211
-168 l62 -31 107 19 107 18 227 189 c124 104 236 202 247 218 12 16 25 45 28
65 14 72 -55 165 -121 165 -14 0 -23 6 -23 16 0 12 17 7 74 -25 41 -23 77 -37
81 -32 3 6 -25 27 -62 47 -38 21 -70 39 -71 40 -2 1 0 9 5 17 7 13 20 8 76
-25 39 -23 73 -36 78 -31 4 4 -22 25 -61 47 -39 22 -70 46 -70 53 0 20 17 16
81 -22 33 -19 64 -35 70 -35 24 0 3 19 -61 56 -51 29 -67 43 -61 53 7 11 23 6
80 -27 39 -22 73 -37 76 -33 6 11 -5 20 -77 60 -32 18 -58 36 -58 40 0 22 20
17 86 -19 40 -22 75 -36 78 -31 3 5 -24 26 -61 47 -83 45 -77 40 -70 58 5 13
19 8 75 -24 73 -42 82 -46 82 -30 0 5 -29 25 -65 45 -36 20 -65 43 -65 51 0
21 13 18 79 -21 32 -19 64 -35 70 -35 26 0 7 18 -59 54 -39 22 -70 43 -70 47
0 19 24 19 58 -2 20 -12 51 -31 69 -41 19 -11 34 -15 37 -9 4 5 -25 28 -64 51
-38 22 -70 45 -70 50 0 21 20 16 84 -21 76 -44 76 -44 76 -26 0 6 -29 28 -65
46 -36 19 -65 41 -65 48 0 20 17 16 84 -22 67 -38 76 -40 76 -25 0 5 -31 27
-70 47 -38 21 -70 44 -70 51 0 43 -43 -17 -165 -234z"/>
<path d="M2386 3940 c-109 -35 -186 -101 -242 -210 -25 -51 -27 -64 -28 -170
-1 -108 1 -119 29 -174 41 -82 110 -150 192 -189 62 -29 76 -32 168 -32 92 0
106 3 168 32 161 77 257 256 227 424 -6 33 -16 73 -23 87 -82 193 -296 294
-491 232z"/>
<path d="M1909 3785 c-25 -33 -41 -44 -61 -45 -29 0 -44 -16 -40 -42 2 -9 -19
-56 -46 -105 l-50 -88 32 -16 c26 -13 34 -13 47 -2 23 19 53 16 74 -8 17 -18
18 -24 6 -52 -10 -25 -22 -167 -14 -167 1 0 43 68 94 150 51 83 98 150 105
150 21 0 27 20 14 46 -11 20 -10 31 6 71 10 26 20 52 22 58 2 5 -14 -10 -36
-34 -45 -52 -59 -44 -31 18 25 56 19 62 -16 17 -42 -56 -59 -48 -35 17 l20 52
-39 -45 c-22 -25 -42 -42 -46 -39 -3 4 3 29 14 58 12 28 19 51 17 51 -2 0 -19
-20 -37 -45z"/>
<path d="M525 3725 c-84 -29 -123 -115 -88 -194 25 -56 471 -467 524 -483 31
-9 86 -1 393 56 197 36 370 73 386 81 91 47 101 187 18 246 -51 37 -95 34
-412 -25 l-298 -56 -190 176 c-105 96 -200 181 -212 188 -34 22 -78 25 -121
11z"/>
<path d="M1765 3150 c-16 -10 -79 -28 -139 -40 -61 -11 -112 -22 -114 -25 -11
-11 19 -63 49 -83 40 -28 97 -25 131 5 25 22 118 166 106 162 -2 0 -16 -9 -33
-19z"/>
<path d="M2151 3145 c-140 -31 -259 -110 -341 -226 -49 -71 -149 -308 -282
-668 -27 -75 -53 -142 -58 -150 -4 -8 -12 13 -20 55 -15 84 -31 116 -67 142
-80 56 -201 11 -218 -81 -8 -42 149 -870 173 -909 9 -16 35 -37 57 -48 37 -18
62 -20 233 -20 l192 0 0 -70 0 -70 65 0 65 0 0 -249 0 -250 -231 -3 -231 -3
-24 -28 c-31 -37 -31 -81 1 -112 l24 -25 534 0 c522 0 534 0 555 20 30 28 36
62 18 98 -24 46 -57 52 -292 52 l-214 0 0 250 0 250 65 0 65 0 0 65 0 65 308
0 308 0 99 -313 c54 -171 106 -328 116 -347 34 -69 89 -102 171 -101 100 0
178 79 178 181 0 21 -38 156 -84 301 -47 145 -86 273 -88 284 -3 18 6 20 120
31 68 7 126 14 128 17 3 3 -28 90 -69 194 -41 103 -85 220 -97 258 -30 92 -68
128 -246 229 -211 120 -322 197 -397 274 -118 123 -134 189 -88 367 33 129 37
184 20 267 -32 152 -130 251 -273 277 -74 14 -94 13 -175 -4z m243 -75 c95
-46 147 -137 154 -271 4 -72 0 -101 -23 -180 -34 -118 -32 -217 5 -294 57
-117 206 -238 490 -400 184 -105 211 -129 234 -201 10 -33 47 -133 82 -223 43
-109 61 -167 54 -171 -6 -4 -80 -12 -163 -18 -717 -55 -1257 -31 -1582 69
-140 44 -244 102 -286 160 l-21 29 92 253 c201 550 343 917 393 1012 61 115
184 213 314 251 70 20 200 12 257 -16z"/>
<path d="M2075 2934 c-63 -32 -141 -108 -183 -178 -42 -69 -141 -310 -247
-601 -145 -400 -149 -413 -135 -430 9 -11 17 -12 31 -4 10 5 19 14 19 20 0 41
293 816 355 939 49 97 121 172 202 211 46 22 63 35 61 47 -5 26 -48 25 -103
-4z"/>
<path d="M4030 1683 c-162 -42 -296 -77 -298 -78 -10 -8 21 -85 33 -85 13 0
15 -75 15 -559 l0 -559 260 -64 c142 -36 262 -63 265 -60 3 3 5 315 5 694 l0
688 30 0 30 0 0 -690 0 -690 345 0 345 0 0 690 c0 617 2 690 16 690 12 0 14
10 12 48 l-3 47 -380 2 -380 2 -295 -76z m25 -219 c0 -19 -5 -29 -15 -29 -16
0 -25 28 -16 51 10 25 31 10 31 -22z m205 -500 l0 -47 -77 6 c-43 4 -140 9
-215 13 -134 7 -138 8 -138 29 0 22 4 23 168 32 92 5 188 10 215 11 l47 2 0
-46z m-205 -180 c0 -19 -5 -29 -15 -29 -16 0 -25 28 -16 51 10 25 31 10 31
-22z"/>
</g>
</svg>
